<svg xmlns="http://www.w3.org/2000/svg" version="1.2" baseProfile="tiny" viewBox="0 0 280 280"><g stroke-width="2" fill="none"><path stroke="#fff2e7" vector-effect="non-scaling-stroke" d="M68.3 89.35c-.8 2.73-.87 5.02-3.86 6.73"/><path stroke="#c4b6ab" vector-effect="non-scaling-stroke" d="M64.44 96.08q-13 .63-25.95 3.22"/><path stroke="#988184" vector-effect="non-scaling-stroke" d="M38.49 99.3c-2.18 1.09-3.86 1.91-6.45 2-3.95.13-7.95.43-11.12 3.02q-8.64 7.06-8.65 18.18 0 4.5 2.95 9.41"/><path stroke="#c4b6ab" vector-effect="non-scaling-stroke" d="m15.22 131.91 3.62 6.11a1 .98 41.7 0 1 .06.88l-1.04 2.52q-.16.39-.11.81 1.09 9.41 2.12 13.41c1.36 5.3 5.12 13.38 10.85 15.7q.46.18.72.61c2.44 4.13 6.54 11.45 11.91 8.49q2.7-1.48 2.45-4.97a1.24 1.24 0 0 1 1.74-1.22q4.43 1.97 4.62 3.38"/><path stroke="#988184" vector-effect="non-scaling-stroke" d="M52.16 177.63q-.02 3.22.61 5.86.7 2.99.56 4.69-.61 7.21-3.37 13.74"/><path stroke="#c1a1a6" vector-effect="non-scaling-stroke" d="m49.96 201.92-1.34 1.54"/><path stroke="#988184" vector-effect="non-scaling-stroke" d="M48.62 203.46c-2.59 1.72-5.28.07-7.92.08q-.52 0-.84.41-1.16 1.47-2.96 2.09a1.04 1.03.5 0 0-.62.6c-2.96 7.61.83 12.76 6.98 16.87 2.35 1.57 5.4 1.14 7.65 1.68q5.97 1.44 11.74 1.59"/><path stroke="#c4b6ab" vector-effect="non-scaling-stroke" d="m62.65 226.78 6.09.47a1.15 1.14-73.1 0 1 .91 1.71l-3.59 6.2a1.3 1.3 0 0 0 1.58 1.87l2.3-.87a.41.41 0 0 1 .51.57l-1.01 2q-.23.47-.16.99c.52 3.84 2.4 7.67 4.31 10.85q3.45 5.75 10.85 7.97 8.17 2.45 20.67 8.75c3.21 1.62 6.65 2.15 10.1 3.26 7.82 2.53 17.16 2.31 25.33 2.49q3.25.07 7.84-.77c5.82-1.06 12.25-.85 17.27-1.99 20.83-4.7 37.97-16.84 51.63-33.14q1.73-2.07 3.89-6.13 3.42-6.45 8.81-11.49 1.42-1.33 1.72-4.81.04-.53.43-.9 5.26-4.91 10.32-10.06c1.4-1.42 1.88-3.27 2.73-5.06a1.46 1.44 89.6 0 1 .63-.65c7.86-3.95 14.55-7.01 15.58-16.8.64-6.06 1.79-12.6.42-18.56q-2.65-11.53-8.38-22.08-.37-.7.39-.49 3.13.85 5.87 2.6c1.72 1.1 3.18.83 4.49-.55a.83.82-33.7 0 0 .17-.84q-.8-2.2-1.37-3.02-13.35-19.22-20.96-41.32-.15-.43-.43-.58-.45-.25-.82.07"/><path stroke="#fff2e7" vector-effect="non-scaling-stroke" d="m240.77 96.47-.97.34"/><path stroke="#c4b6ab" vector-effect="non-scaling-stroke" d="M239.8 96.81q-1.49-.73-2.22-1.79-.37-.53.27-.64c14.6-2.52 24.68-17.43 26.77-31.04 1.1-7.17.97-13.08-2.53-19.2q-4.29-7.52-9.74-14.22c-4.43-5.45-8.86-6.55-14.75-8.36-4.34-1.33-6.72-1.34-10.68.36-5.46 2.34-9.09 4.6-13.56 8.97q-6.22 6.09-13.16 12.79a2.83 2.83 0 0 1-3.4.4c-7.07-4.16-17.36-6.22-23.02-9.1q-6.79-3.46-16.39-12.37-6.4-5.95-8.98-12.1c-.78-1.88-1.75-3.09-3.66-3.48a1.67 1.67 0 0 0-1.93 1.15q-1.25 4.11-.73 8.07c.65 5.02.7 9.84 3.69 14.19a.23.23 0 0 1-.28.34q-4.67-1.92-9.76-1.73c-2.65.1-5.44-.17-7.99.18-16.88 2.3-27.28 4.01-41.97 1.06-1.83-.36-3.22-1.08-4.88-1.86q-2.11-1-3.75 1.42a1.16 1.16 0 0 0 .93 1.81q2.28.05 3.83 1.61.33.33.37.8.2 2.38 1 3.22 4.05 4.27 6.84 9.42c1.47 2.72 3.15 4.05 5.94 4.83a.33.32-42.4 0 1-.03.63q-8.51 1.68-16.12 5.77-2.51 1.35-2.46 3.6.01.49-.27.91L74 67.31a.52.5 5.1 0 1-.25.2q-3.1 1.28-6.48 1.39a.94.94 0 0 0-.65.31c-1.23 1.4-.88 2.55.47 3.73q2.78 2.43 5.49 4.79a.66.65 50 0 1-.09 1.05q-3.31 2.07-4.14 5.92-.11.52.23.93 1.22 1.51-.28 3.72"/><path stroke="#c4a993" vector-effect="non-scaling-stroke" d="M239.8 96.81c.62 3.4-3.71 4.32-5.61 6.26q-1.85 1.89-3.01 2.65c-2.22 1.45-4.31 3.28-6.56 4.25q-4.14 1.79-8.8 1.48a.4.39 79 0 0-.38.57q1.31 2.65 3.95 4.1 5.86 3.22 8.48 9.27a2.11 2.1-83 0 0 .67.86q.97.72 1.66 2.03a2.18 2.17-5.3 0 1-2.56 3.08q-2.99-.9-6.39-.99-.4-.01-.73-.23-1.83-1.15-4.02-.86a.47.47 0 0 0-.27.8c1.88 1.87 2.29 3.79 3.24 5.98 6.02 13.89 6.69 26.23 3.52 41.15q-.09.45-.54.53l-1.67.32a.84.84 0 0 0-.65.6c-.57 2-1.01 3.7-2.51 5.27q-11.48 12.04-24.25 22.7c-2.59 2.16-6.7 5.51-10.28 4.46a.57.57 0 0 1-.12-1.05q.96-.51 2.6-1.7 7.78-5.63 20.92-17.85c5.91-5.49 10.8-9.81 9.86-17.5-.24-1.96.08-4.1 2.57-3.7a1.07 1.07 0 0 0 1.23-1.16c-.43-3.98.81-7.56.33-11.29q-.4-3.12-.88-6.23c-.71-4.64-2.88-9.05-4.34-13.58-1.23-3.84-3.38-6.35-5.53-9.56a2.23 2.23 0 0 1 2.41-3.4l11.04 2.79q.67.17.49-.5l-.45-1.66q-.13-.5-.53-.83c-3.92-3.26-8.34-6.37-10.98-10.62-2.13-3.41-5.27-8.15-3.83-12.3a.71.7 45.3 0 1 1.33.01q1.36 3.96 4.15 7.1.43.49 1.07.38 6.11-.97 11.69-3.55.43-.2.62-.63 1.61-3.65 5.44-4.67a1.16 1.16 0 0 0 .05-2.22l-5.03-1.59a.65.64 11.6 0 1-.44-.66c.33-4.55 6-3.88 9.25-4.38 16.57-2.56 25.55-20.7 24.85-36.04-.32-7.04-4.92-12.82-9.07-18.48q-4.39-5.99-7.89-8.22-3.42-2.19-7.46-3.09-3.91-.87-7.82.41-6.29 2.08-11.47 7.09-9.46 9.13-14.96 14.88-2.07 2.17-4.61 3.44c-7.31 3.67-12.25 6.43-20.86 4.7q-2.32-.47-2.56-2.48-.07-.63.55-.51 10.63 2.04 19.33-4.17a.8.8 0 0 0-.12-1.38c-3.08-1.49-5.89-2.85-9.36-3.92q-8.64-2.67-16.68-6.8c-4.83-2.49-8.83-6.37-13.15-9.88q-3.74-3.03-6.23-7.49a1.03 1.03 0 0 0-1.91.7q1.5 7.68 5.07 14.58a1.69 1.68 69.2 0 1-1.08 2.42c-2.84.71-4.93-1.4-6.9-1.97q-9.01-2.59-18.42-1.19-4.16.63-8.34 1.23c-5.74.84-11.89.58-17.93 1.22q-4.07.44-13.64-2.01-.65-.16-.31.41c2.29 3.89 5.46 6.76 7.75 10.7q2.77 4.76 7.94 7.36a.92.92 0 0 1-.28 1.74q-7.5 1.06-13.77 5.28-.45.3 0 .6 1.53 1 3.32.23.94-.41 1.55 0 .52.35-.01.67-3.23 2-6.37-.12-.71-.47-1.05.31l-.49 1.16q-.15.36.23.45l2.18.48a.62.62 0 0 1 .47.77q-.74 2.83-3.45 3.42a.85.85 0 0 1-.84-.3q-.97-1.17-2.07-.34-3.76 2.81-7.99 4.74a.58.58 0 0 0-.15.95l5.14 4.89a2.12 2.12 0 0 1 .3 2.72q-1.67 2.47-4.53 3.28-.85.24-.28.91l1.13 1.34a.93.93 0 0 1 .14.97l-1.39 3.17q-.18.42-.63.52-2.86.66-3.59-.74"/><path stroke="#c4a993" vector-effect="non-scaling-stroke" d="M240.77 96.47c.18 2.58-.28 4.85.43 7.33q3.15 10.95 7 17.71 4.2 7.36 8.37 14.37a.77.77 0 0 1-.9 1.13l-3.88-1.27q-.53-.18-1.04.07c-5.22 2.62 1.3 10.85 2.61 14.31 2.51 6.6 4.84 12.95 4.65 20.06-.16 6.36-.19 16.86-6.33 20.5q-5.34 3.16-10.98 5.71c-2.33 1.05-3.41 2.01-4.38 4.22a1.1 1.1 0 0 0 1.48 1.43l1.45-.7a.49.49 0 0 1 .54.8q-6.24 5.55-12.3 11.06c-3.96 3.6-8.53 6-13.04 8.99a.54.54 0 0 0 .29.99q4.72.05 8.63-3.17.15-.13.28-.14.16-.01.28.07a.37.36-51.4 0 1 .06.56c-4.13 4.24-6.43 9.81-9.46 13.72q-17.76 22.87-45.85 31.47-4.78 1.46-6.18 1.54-9.9.58-15.62 1.9c-4.38 1.01-10.48-.3-14.34-.33-4.46-.03-8.19.4-12.59-.86-4.3-1.24-8.7-2.07-12.67-3.9q-2.93-1.36-5.79-2.85c-1.59-.82-3.3-.65-4.92-1.55q-4.22-2.36-9.26-3.53c-8.41-1.95-11.46-7.77-14.82-16.41a.83.81-37.3 0 1 .12-.82l3.29-4.14a1.44 1.44 0 0 0-1.78-2.18l-1.65.84a.99.98-5.9 0 1-1.4-1.13c1.73-6.26 6.51-4.18 10.99-4.44q4.07-.24 8.14-.09c7.52.28 14.44-.49 21.74-1.01q6.98-.5 13.55-1.53 6.85-1.07 13.68-2.21 2.28-.38 2.4-2.26a2 2 0 0 0-2.71-2q-4.54 1.72-9.58 2.16c-2.05.18-3.94 1.07-6.03 1.32q-29.21 3.41-58.49 1.31"/><path stroke="#98746c" vector-effect="non-scaling-stroke" d="M64.76 223.52q-.74.16-1.08-.03-.47-.27.03-.48c3.01-1.25 5.92-2.45 8.7-4.16 2.21-1.37 4.89-1.82 6.75-2.87q10.35-5.88 18.2-14.86c.87-.99 1.37-2.37 2.37-3.4q15.73-16.26 25.28-27.94 2.96-3.62 7.81-11.61.26-.43.76-.47 5.42-.49 7.1-4.95c.71-1.9-.71-3.45-2.73-3.43q-3.49.04-6.71 1.35"/><path stroke="#c4a993" vector-effect="non-scaling-stroke" d="M131.24 150.67q-5.28 2.28-3.64 4.43"/><path stroke="#98746c" vector-effect="non-scaling-stroke" d="M127.6 155.1q-2.07 2.75-3.35 3.42-11.39 5.97-23.39 9.69"/><path stroke="#c4a993" vector-effect="non-scaling-stroke" d="M100.86 168.21q-4.19-.06-8.12.86c-3.17.74-5.11-.12-8.15-.38-7.21-.6-14.73-2.84-20.84-3.19q-6.94-.4-11.19-1.41-.49-.12-.88-.43-1.64-1.33-4.65-.96"/><path stroke="#98746c" vector-effect="non-scaling-stroke" d="m47.03 162.7-2.49-.74q-.6-.17-.69-.79l-1.76-12.25a.91.91 0 0 1 .71-1.02q6.19-1.27 11.58-4.93c1.15-.78 1.34-1.58.7-2.77q-.24-.45-.12-.94 1.18-4.58 4.44-7.37"/><path stroke="#c4a993" vector-effect="non-scaling-stroke" d="M59.4 131.89q.75.01.78-.64.02-.71-.55-1.44"/><path stroke="#98746c" vector-effect="non-scaling-stroke" d="M59.63 129.81q-.12-.34-.23-.68"/><path stroke="#ae7f7e" vector-effect="non-scaling-stroke" d="M59.4 129.13q.97-1.24 2.17-.83.43.14.52-.29.08-.38-.15-.96"/><path stroke="#98746c" vector-effect="non-scaling-stroke" d="M61.94 127.05q.66-2.18 2.09-3.67"/><path stroke="#c4a993" vector-effect="non-scaling-stroke" d="M64.03 123.38q1.91.36 2.03-.88.05-.49-.4-2.08"/><path stroke="#98746c" vector-effect="non-scaling-stroke" d="M65.66 120.42q-1.99-6.28-6.7-11.47"/><path stroke="#ae7f7e" vector-effect="non-scaling-stroke" d="M58.96 108.95q-3.05-5.42-8.57-2.98-.48.21-.88-.13l-1.31-1.11"/><path stroke="#c4a993" vector-effect="non-scaling-stroke" d="M48.2 104.73q-1.19-1.37-2.15-1.19"/><path stroke="#ae7f7e" vector-effect="non-scaling-stroke" d="M46.05 103.54q-.98-.39-1.94-.03"/><path stroke="#98746c" vector-effect="non-scaling-stroke" d="m44.11 103.51-.66-.57"/><path stroke="#c4a993" vector-effect="non-scaling-stroke" d="M43.45 102.94q.03-.48.35-.82.23-.24.74-.35 2.17-.44 4.31-.93c5.18-1.2 11.14-1.4 16.47-1.83 6.37-.51 12.11-3 18.11-4.97.94-.31 2.27-.34 3.3-.86 1.95-.98 1.28-2.56-.03-3.71a1.36 1.36 0 0 0-1.74-.05c-1.72 1.33-3.93 2.06-5.75 3.02q-6.63 3.49-14.77 3.64"/><path stroke="#5a232b" vector-effect="non-scaling-stroke" d="m48.62 203.46 2.91 4.06a1.02 1.02 0 0 1 .17.84l-1.23 5.28a.85.84 8.4 0 0 .77 1.03l1.25.09a.76.75-78.6 0 0 .75-.5q1.13-3.09 4.37-2.11.69.21.16.7l-1.79 1.69a.39.39 0 0 0 .33.67l3.96-.59a.68.68 0 0 0 .41-1.12l-.7-.78a.48.48 0 0 1 .19-.77l1.4-.52q.58-.22.01-.45l-4.51-1.82q-.64-.26-.28-.85 3.81-6.42 9.2-11.58.1-.1.25-.11h.28a.47.47 0 0 0 .44-.35q.56-2.07 2.35-2.97c1.57-.78 2.45-2.27 4.04-3.23 6.28-3.81 11.86-6.92 18.21-11.75q5.36-4.08 11.69-7.11a.63.63 0 0 0-.05-1.16q-.23-.09-.91.3c-2.17 1.23-3.99.49-6.16 1.01q-6.96 1.67-2.34-.62"/><path stroke="#5d382f" vector-effect="non-scaling-stroke" d="M127.6 155.1q2.73-.89 3.64-4.43"/><path stroke="#c4a993" vector-effect="non-scaling-stroke" d="M30.43 148.1c-3.85.58-5.38-2.8-7.68-5.07a.58.58 0 0 0-.99.48c.81 7 2.98 20.73 9.98 24.46q.45.23.91.03c2.88-1.25 3.83-4.08 6.19-5.03"/><path stroke="#5d382f" vector-effect="non-scaling-stroke" d="m100.86 168.21-7.07 2.53"/><path stroke="#865852" vector-effect="non-scaling-stroke" d="M93.79 170.74q-2.84.46-5.09 2.97"/><path stroke="#5d382f" vector-effect="non-scaling-stroke" d="m88.7 173.71-4.46 1.96"/><path stroke="#c4b6ab" vector-effect="non-scaling-stroke" d="M84.24 175.67q.21-1.51.93-2.66.23-.38-.2-.48l-9.52-2.17q-.8-.18-.33.49l.87 1.26a.56.56 0 0 1-.39.87l-1.38.16q-.82.1-.39.81 2.49 4.07 7.81 4.71"/><path stroke="#5d382f" vector-effect="non-scaling-stroke" d="M81.64 178.66 75 179.73"/><path stroke="#734341" vector-effect="non-scaling-stroke" d="M75 179.73q-3.12-2.03-4.74-5.75-.17-.4-.61-.4l-15.1-.08a.66.66 0 0 0-.66.67q.04 1.35-.29 1.9"/><path stroke="#5d382f" vector-effect="non-scaling-stroke" d="M53.6 176.07q-1.2 2.6-1.44 1.56M43.45 102.94q-.77.18-1.16-.12a.43.43 0 0 1 .07-.73q1.36-.67.32-1.49a1.97 1.91 70.7 0 0-.66-.33l-3.53-.97"/><path stroke="#460e1a" vector-effect="non-scaling-stroke" d="m44.11 103.51.06.39q.09.49-.28.82-2.55 2.35-5.47.62-.45-.27-.97-.29-4.6-.19-9.2.32c-7.79.86-11.61 11.44-11.12 17.73q.41 5.44 4.43 11.6 3.5 5.37 8.32 9.64a.98.98 0 0 1 .32.77q-.06 1.31-1.17 1.19"/><path stroke="#5d382f" vector-effect="non-scaling-stroke" d="M29.03 146.3c-1.89-.75-3.17-1-4.42-2.77q-4.2-5.96-9.39-11.62M62.65 226.78l3.61-1.61a.59.59 0 0 0 .28-.81q-.35-.66-1.78-.84M65.66 120.42q-1.14 1.26-1.63 2.96"/><path stroke="#460e1a" vector-effect="non-scaling-stroke" d="M61.94 127.05q-.4 1.15-1.68.93-1.15-.19-1.51-.98a1.06 1.05 4.2 0 0-.4-.46q-3.18-1.96-6.59-3.42c-2.92-1.25-5.37-.46-8.32.2a1.19 1.19 0 0 0-.44 2.12q.84.61 1.08 1.51a.55.54-12.4 0 1-.44.68l-1.97.32a.48.48 0 0 0-.29.78q3.73 4.44 8.93 7.03a.68.67 28.6 0 0 .89-.26q3.19-5.46 8.2-6.37"/><path stroke="#5d382f" vector-effect="non-scaling-stroke" d="m59.63 129.81-.23 2.08M47.03 162.7q.09 1.1 1.66.35a.48.47 75.5 0 1 .67.4c.06.81-.45 1.72-1.26 2.08q-6.86 3.09-9.26-2.56"/><path stroke="#98746c" vector-effect="non-scaling-stroke" d="M38.84 162.97q-.71-3.55-1.56-6.84c-.61-2.32-.25-3.81.18-6.13"/><path stroke="#734341" vector-effect="non-scaling-stroke" d="M46.05 103.54q.17 1.53 2.15 1.19"/><path stroke="#460e1a" vector-effect="non-scaling-stroke" d="m58.96 108.95-3.01.68q-.69.15-.29.73l7 10.32q.31.45.19.98l-.6 2.74a.87.87 0 0 1-1.49.41q-6.46-7.05-16.2-5.87c-1.76.22-3.17 1.15-4.8 1.91q-.48.22-.89-.11-6-4.93-13.36-2.95-2.87.76-4.35 2.99-1.56 2.36-1.89 5.26a.36.36 0 0 0 .67.23c1.47-2.33 2.89-5.44 5.67-6.35q7.05-2.3 11.46 3.88a1.65 1.65 0 0 1 .03 1.86c-2.51 3.83-.07 6.21 3.23 8.32q3.67 2.35 7.43 4.65 1.71 1.05.6 2.71-1.45 2.18-4.06 2.58-.53.08-.91-.29c-2.42-2.33-5.53-3.79-7.4-6.25-1.31-1.73-2.87-6.15-4.45-7.13a.96.96 0 0 0-1.46.81q-.08 8.16 6.97 11.75a1.8 1.79 29.5 0 1 .71 2.55q-1.09 1.74-3.59.21-.92-.56-1.9-.38-.71.13-.11.54 2.35 1.62 5.11 1.58.5 0 .52.5.06 1.47-.33 2.19"/><path stroke="#ae7f7e" vector-effect="non-scaling-stroke" d="M37.46 150q-4.74-.33-7.03-1.9"/><path stroke="#734341" vector-effect="non-scaling-stroke" d="M30.43 148.1q-.48-1.1-1.4-1.8"/><path stroke="#5a232b" vector-effect="non-scaling-stroke" d="m49.96 201.92 1.98 3.6a1.33 1.32-44.4 0 0 2.31.02l1.59-2.75q.25-.43-.2-.66-1.61-.81-2.24-2.61-.22-.64.46-.63 1.06.03 1.04-1.12a.43.43 0 0 1 .65-.38q1.57.92 1.9 2.59.13.69.62.19l.83-.85q.7-.71-.3-.7h-.48a.58.57-77.5 0 1-.52-.82l.65-1.4q.35-.78.85-.08.74 1.03 1.52.4 1.62-1.32 3.19-3.62 1.56-2.3 3.12-3.57 4.83-3.93 9.94-7.61a1.05 1.04-53.8 0 1 .93-.15c3.74 1.2 6.68.17 8.71-3.33q1.32-2.29 2.19-4.73"/><path stroke="#460e1a" vector-effect="non-scaling-stroke" d="M75 179.73q-10.35 5.16-16.57 14.63-3.54 5.37-2.03-.83.82-3.36.45-9.27-.39-6.05-3.25-8.19"/><path stroke="#988184" vector-effect="non-scaling-stroke" d="m84.24 175.67-2.6 2.99"/><path stroke="#c4a993" vector-effect="non-scaling-stroke" d="m197.19 73.21-3.61.46"/><path stroke="#98746c" vector-effect="non-scaling-stroke" d="M193.58 73.67q-1.03.37-1.5.85"/><path stroke="#c1948e" vector-effect="non-scaling-stroke" d="M192.08 74.52q-1.17-.16-1.85.16-.64.3 0 .59 1.64.76 3.43.38a.61.61 0 0 1 .7.79l-1.38 4.11a.64.6 50.4 0 0-.02.31q.82 3.89 5.69 4.86"/><path stroke="#98746c" vector-effect="non-scaling-stroke" d="M198.65 85.72q.44.93-.87 1.79-.43.28-.39.8.08.98.94 1.31"/><path stroke="#c4a993" vector-effect="non-scaling-stroke" d="M198.33 89.62c1.7 2.24 3.37.41 4.11-1.23"/><path stroke="#98746c" vector-effect="non-scaling-stroke" d="M202.44 88.39q1.66.01 2.66.82.42.34.41.89-.06 2.66 1.21 2.05"/><path stroke="#c4a993" vector-effect="non-scaling-stroke" d="m206.72 92.15 6.23.05"/><path stroke="#98746c" vector-effect="non-scaling-stroke" d="m212.95 92.2 7.4-1.09a1.31 1.31 0 0 0 .86-2.08l-1.33-1.79a.4.4 0 0 1 .5-.6l1.3.63q.47.22.97.15 15.32-2 23.27-15.22 5.07-8.43 5.44-11.19 2.14-16.14-11.4-22.09c-4.34-1.91-8.64-1.73-12.54.73-2.97 1.87-7.57 6.44-9.29 9.81-4.35 8.53-7.43 15.99-16.29 18.76a1.37 1.37 0 0 0 .02 2.62q.72.22.98.61a.33.33 0 0 1-.21.51l-5.44 1.25"/><path stroke="#5d382f" vector-effect="non-scaling-stroke" d="M212.95 92.2q-3.65-1.35-6.23-.05M202.44 88.39l-4.11 1.23"/><path stroke="#5a232b" vector-effect="non-scaling-stroke" d="M198.65 85.72c3.93-2.14 6.95.09 10.42 2.65a1.14 1.13 52.2 0 0 1.07.14q2.32-.88 2.29-3.5 0-.48.47-.59c6.85-1.48 13.42.33 19.46-3.78 4.64-3.15 12.07-10.22 13.63-16.13.77-2.89 2.21-5.32 1.98-8.23q-.74-9.49-9.1-14.01c-2.29-1.24-6.05-2.07-8.16-.8q-6.22 3.75-10.31 11.18-2.89 5.28-4.16 7.08-3.22 4.58-4.79 6.7-.88 1.19-1.98.74-.41-.17-.86-.2-1.04-.08-1.35.62a1.12.97 74.5 0 0 1.75 1.16l.14-.27q.24-.47.65-.14c1.11.86 1.11 1.93.03 2.88-4.62 4.06-10.77 4.61-16.59 3.8q-.79.47-1.16-.5"/><path stroke="#5d382f" vector-effect="non-scaling-stroke" d="M193.58 73.67q2.55.95 3.61-.46"/><path stroke="#98746c" vector-effect="non-scaling-stroke" d="M153.58 88.27q.63-.33.56-1.19a.76.75-74.1 0 0-.29-.53l-3.13-2.36q-.46-.34-.67-.87c-3.29-8.33-21.11-12.99-29.56-14.28q-3.57-.55-8.28 1.6c-8 3.65 2.97 9.91 6.07 11.64q2.5 1.39 6.25 2.18 5.72 1.19 9.77 2.95 3.89 1.7 13.2 6.83c2.3 1.27 2.82 3.59 6.27 1.54q1.26-.76 1.02-2c-.32-1.61-.43-3.11-1.45-4.47q-.5-.66.24-1.04"/><path stroke="#c4a993" vector-effect="non-scaling-stroke" d="M142.17 113.75q.04.65-.11 1.02-.13.32-.76.48c-3.02.81-4.43 3.24-6.17 4.67q-2.58 2.13-5.16 4.29-.12.1-.11.26.01.16.03.31.06.43.44.21 5.09-2.96 6.59-3.55 2.25-.88 3.79-1.82 2.86-1.74 3.59-2.03 5.19-2.08 10.71-2.95 2.63-.42 5.22-1.55 4.35-1.87 8.95-2.59a.83.83 0 0 0 .66-1.07q-.24-.73-1.35-.56-7.15 1.1-14.32 2.45a.49.49 0 0 1-.49-.77l1.27-1.78a.49.49 0 0 0-.61-.72l-9.54 4.61"/><path stroke="#98746c" vector-effect="non-scaling-stroke" d="M144.8 112.66q1.7-2.94-.61-3.58-3.61-1-5.84-2.51a1.31 1.28-31.3 0 0-.91-.21c-4.96.65-11.57 1.98-15.45 5.32-2.02 1.73-5.2 4.64-4.33 7.57q.13.46.6.36c5.96-1.21 11.38-5.13 15.49-6.3q3.35-.96 8.42.44"/><path stroke="#5d382f" vector-effect="non-scaling-stroke" d="m144.8 112.66-1.33 2.11q-.31.49-.63 0l-.67-1.02"/><path stroke="#460e1a" vector-effect="non-scaling-stroke" d="M148.35 90.22q.99.44.81-.63c-.65-3.81-2.79-7.19-6.22-9.18-2.76-1.6-4.74-3.43-7.67-4.43q-4.83-1.64-9.85-2.59c-1.34-.26-2.58-1.12-4.09-1.34-2.54-.38-4.65 1.29-7.6.61a1.08 1.08 0 0 0-.89 1.92c5.32 3.96 10.97 6.28 17.63 7.87 6.29 1.5 11.91 5.08 17.88 7.77"/><path stroke="#c4b6ab" vector-effect="non-scaling-stroke" d="m65.46 169.89 4.28.99a.68.68 0 0 0 .43-1.28c-2.64-1.15-4.4-.33-6.43-.5q-7.64-.62-15.23-1.77-1.09-.16-3.27.56-.57.19-.16.63l2.43 2.63a.49.48 42.1 0 0 .73-.03q1.22-1.55 3.11-.88.43.16.89.09 2.05-.3 4.75-.03 3.51.36 7.53-.43.47-.09.94.02M33.74 170.93c1.74 2.11 4.32 6.82 7.07 6.68q.52-.03.82-.46 2.17-3.18 1.16-7.05-.33-1.24-1.6-1.02l-7.22 1.25a.37.37 0 0 0-.23.6"/><path stroke="#460e1a" vector-effect="non-scaling-stroke" d="m120.42 164.7-6.82 3.08a.77.77 0 0 0-.31 1.15q1.33 1.91.26 4.01-.17.33.15.52l.46.27a.42.42 0 0 0 .59-.18q2.2-4.66 6.34-7.71a.66.66 0 0 0-.67-1.14"/><path stroke="#5a232b" vector-effect="non-scaling-stroke" d="M85.8 201.48q.34-.14.58-.35 4.74-4.06 9.34-8.27c4.12-3.78 9.03-9.33 13.97-13.65q1.13-.98 1.02-3.4-.02-.47-.47-.59c-4.03-1.1-9.58.85-13.34 2.47q-3.15 1.35-7.92 4.67-7.48 5.2-15.07 10.29-.52.35-1.14.25-.65-.11-.63.67.01.73-.7.55l-.36-.09a.29.29 0 0 0-.34.2l-.61 1.92a.56.56 0 0 1-.81.32l-.52-.29a.41.4 3.1 0 0-.57.51q.61 1.44-.86 2.54-.45.34-.41-.22l.04-.5q.06-.85-.67-.41-2.13 1.31-1.42 3.07.37.9 2 1.74c2.65 1.36 4.95 3.94 7.19 5.8a.7.69 49.5 0 0 .8.07q5.37-3.08 10.18-6.89.33-.26.72-.41"/><path stroke="#988184" vector-effect="non-scaling-stroke" d="M69.24 208.95c-.67-1.3-2.68-.44-2.95-2.69a1.08 1.08 0 0 0-1.93-.53q-3.01 3.86.17 7.52.41.47.98.25l5.93-2.29q.51-.2-.01-.38-1.5-.53-2.19-1.88M46.23 207.87l1.44 3.4q.28.64.51-.02l1.19-3.35a.51.5 6.9 0 0-.53-.67l-2.38.25q-.37.04-.23.39"/><path stroke="#5d382f" vector-effect="non-scaling-stroke" d="M47.815 220.884a2.97.57 29.1 0 0-2.318-1.942 2.97.57 29.1 0 0-2.872-.946 2.97.57 29.1 0 0 2.318 1.942 2.97.57 29.1 0 0 2.872.946"/><path stroke="#5a232b" vector-effect="non-scaling-stroke" d="M62.54 192.47q-.97-1.43-1.71.13l-.9 1.9a.41.41 0 0 0 .72.38q.65-1.12 1.91-.73a.52.52 0 0 0 .59-.79l-.61-.89"/></g><path fill="#fff" d="m108.08 273.87-.27.15q-.31.18-.63.03c-3.61-1.71-8.73-3.56-11.87-5.91q-.62-.45-1.29 0-.41.29-.86.06c-4-2.04-6.71-3.22-11.89-4.93-4.42-1.45-7.74-3.67-10.63-7.57q-4.03-5.44-4.96-8.96-.93-3.57-4.36-8.27-1.13-1.55-.4-4a.81.8 29.5 0 0-.23-.82c-2.69-2.45-5.23-2.08-7.98-2.79q-2.72-.7-5.5-.76-2.61-.06-4.27-.83c-7.44-3.47-13.76-10.02-13.07-18.47.68-8.24 6.32-13.66 14.89-12.22q.51.08.85-.31 1.21-1.45 1.1-3.33-.03-.51.17-.99 1.63-3.84.94-8.03a1.12 1.11 73.1 0 0-1.56-.84c-7.14 3.22-11.85-.21-16.86-5.69-6.63-7.26-12-12.44-14.45-22.38-1.21-4.92-3.24-12.86-1.77-17.75q.15-.5-.1-.95c-1.01-1.85-2.55-2.95-3.24-4.92q-.99-2.83-1.95-5.67c-1.07-3.14-.67-6.05-.77-9.31q-.02-.51.26-.94c.89-1.4.47-2.61.97-3.93 2.29-6.12 7.63-14.58 14.43-16.23q3.99-.96 8.08-1.33 2.5-.23 5.13-1.19 4.33-1.59 8.94-1.95c1.83-.14 3.9-1.23 6.13-.53q.46.14.92.05c2.61-.49 2.35-2.91 2.24-4.79a1.09 1.07 70.9 0 1 .44-.93l5.32-3.93a1.07 1.05-18.6 0 0 .43-.85q-.03-2.73 1.42-5.04a.97.96-39.4 0 0 .09-.86c-1.43-3.78-2.41-7.47.88-10.41 3.43-3.07 9.31-1.36 9.77-7.42q.04-.53.38-.94 3.08-3.7 8.36-5.56 1.56-.55 3.27-2.27.36-.36.23-.86c-.69-2.69-2.47-3.9-3.86-5.62q-3.09-3.81-6.49-7.36-1.67-1.75-2.17-3.17-.84-2.34 0-4.03 3.85-7.7 10.96-4.72 3.23 1.36 4.76 1.64 8.15 1.5 10.99 1.54 10.75.13 27.24-2.58c3.41-.57 6.84-.33 10.18-.34a1.3 1.3 0 0 0 1.29-1.47c-.54-4.16-1.39-7.96-.61-12.1.25-1.34.1-3.69 1.38-5.07 6.21-6.73 12.9-1.87 15.7 4.86q1.16 2.8 2.52 4.34 7.59 8.61 17.41 14.33c6.1 3.56 14.47 6.05 21.46 8.76q2.4.93 4.27-.84c8.97-8.55 16.22-16.78 28.02-20.77q2.88-.97 5.88-.53 7.44 1.08 14.13 4.36 3.75 1.84 6.83 5.21c6.55 7.18 16.02 20.02 15.96 30.3q-.18 26.22-21.14 40.77c-1.97 1.37-1.81 2.46-1 4.49q6.35 16 15.46 29.77c2.97 4.48 9.69 13.96 1.15 17.43a2.88 2.88 0 0 0-1.65 3.59c1.46 4.28 3.48 8.7 3.85 13.18q.96 11.57-1.93 23.27-2.33 9.42-10.7 12.74-2.49.98-3.88 2.25-15.46 14.12-24.39 33.16-1.43 3.05-8.32 9.46-9.44 8.79-19.91 16.24c-10.53 7.51-21.03 11.7-33.31 14.15-4.66.93-11.43 1.17-17.2 2.02q-3.89.57-6.91.51-8.69-.17-18.88-.93-7.02-.53-12.96-3.49-.44-.22-.86.02ZM68.3 89.35c-.8 2.73-.87 5.02-3.86 6.73q-13 .63-25.95 3.22c-2.18 1.09-3.86 1.91-6.45 2-3.95.13-7.95.43-11.12 3.02q-8.64 7.06-8.65 18.18 0 4.5 2.95 9.41l3.62 6.11a1 .98 41.7 0 1 .06.88l-1.04 2.52q-.16.39-.11.81 1.09 9.41 2.12 13.41c1.36 5.3 5.12 13.38 10.85 15.7q.46.18.72.61c2.44 4.13 6.54 11.45 11.91 8.49q2.7-1.48 2.45-4.97a1.24 1.24 0 0 1 1.74-1.22q4.43 1.97 4.62 3.38-.02 3.22.61 5.86.7 2.99.56 4.69-.61 7.21-3.37 13.74l-1.34 1.54c-2.59 1.72-5.28.07-7.92.08q-.52 0-.84.41-1.16 1.47-2.96 2.09a1.04 1.03.5 0 0-.62.6c-2.96 7.61.83 12.76 6.98 16.87 2.35 1.57 5.4 1.14 7.65 1.68q5.97 1.44 11.74 1.59l6.09.47a1.15 1.14-73.1 0 1 .91 1.71l-3.59 6.2a1.3 1.3 0 0 0 1.58 1.87l2.3-.87a.41.41 0 0 1 .51.57l-1.01 2q-.23.47-.16.99c.52 3.84 2.4 7.67 4.31 10.85q3.45 5.75 10.85 7.97 8.17 2.45 20.67 8.75c3.21 1.62 6.65 2.15 10.1 3.26 7.82 2.53 17.16 2.31 25.33 2.49q3.25.07 7.84-.77c5.82-1.06 12.25-.85 17.27-1.99 20.83-4.7 37.97-16.84 51.63-33.14q1.73-2.07 3.89-6.13 3.42-6.45 8.81-11.49 1.42-1.33 1.72-4.81.04-.53.43-.9 5.26-4.91 10.32-10.06c1.4-1.42 1.88-3.27 2.73-5.06a1.46 1.44 89.6 0 1 .63-.65c7.86-3.95 14.55-7.01 15.58-16.8.64-6.06 1.79-12.6.42-18.56q-2.65-11.53-8.38-22.08-.37-.7.39-.49 3.13.85 5.87 2.6c1.72 1.1 3.18.83 4.49-.55a.83.82-33.7 0 0 .17-.84q-.8-2.2-1.37-3.02-13.35-19.22-20.96-41.32-.15-.43-.43-.58-.45-.25-.82.07l-.97.34q-1.49-.73-2.22-1.79-.37-.53.27-.64c14.6-2.52 24.68-17.43 26.77-31.04 1.1-7.17.97-13.08-2.53-19.2q-4.29-7.52-9.74-14.22c-4.43-5.45-8.86-6.55-14.75-8.36-4.34-1.33-6.72-1.34-10.68.36-5.46 2.34-9.09 4.6-13.56 8.97q-6.22 6.09-13.16 12.79a2.83 2.83 0 0 1-3.4.4c-7.07-4.16-17.36-6.22-23.02-9.1q-6.79-3.46-16.39-12.37-6.4-5.95-8.98-12.1c-.78-1.88-1.75-3.09-3.66-3.48a1.67 1.67 0 0 0-1.93 1.15q-1.25 4.11-.73 8.07c.65 5.02.7 9.84 3.69 14.19a.23.23 0 0 1-.28.34q-4.67-1.92-9.76-1.73c-2.65.1-5.44-.17-7.99.18-16.88 2.3-27.28 4.01-41.97 1.06-1.83-.36-3.22-1.08-4.88-1.86q-2.11-1-3.75 1.42a1.16 1.16 0 0 0 .93 1.81q2.28.05 3.83 1.61.33.33.37.8.2 2.38 1 3.22 4.05 4.27 6.84 9.42c1.47 2.72 3.15 4.05 5.94 4.83a.33.32-42.4 0 1-.03.63q-8.51 1.68-16.12 5.77-2.51 1.35-2.46 3.6.01.49-.27.91L74 67.31a.52.5 5.1 0 1-.25.2q-3.1 1.28-6.48 1.39a.94.94 0 0 0-.65.31c-1.23 1.4-.88 2.55.47 3.73q2.78 2.43 5.49 4.79a.66.65 50 0 1-.09 1.05q-3.31 2.07-4.14 5.92-.11.52.23.93 1.22 1.51-.28 3.72Z"/><path fill="#896d56" d="M239.8 96.81c.62 3.4-3.71 4.32-5.61 6.26q-1.85 1.89-3.01 2.65c-2.22 1.45-4.31 3.28-6.56 4.25q-4.14 1.79-8.8 1.48a.4.39 79 0 0-.38.57q1.31 2.65 3.95 4.1 5.86 3.22 8.48 9.27a2.11 2.1-83 0 0 .67.86q.97.72 1.66 2.03a2.18 2.17-5.3 0 1-2.56 3.08q-2.99-.9-6.39-.99-.4-.01-.73-.23-1.83-1.15-4.02-.86a.47.47 0 0 0-.27.8c1.88 1.87 2.29 3.79 3.24 5.98 6.02 13.89 6.69 26.23 3.52 41.15q-.09.45-.54.53l-1.67.32a.84.84 0 0 0-.65.6c-.57 2-1.01 3.7-2.51 5.27q-11.48 12.04-24.25 22.7c-2.59 2.16-6.7 5.51-10.28 4.46a.57.57 0 0 1-.12-1.05q.96-.51 2.6-1.7 7.78-5.63 20.92-17.85c5.91-5.49 10.8-9.81 9.86-17.5-.24-1.96.08-4.1 2.57-3.7a1.07 1.07 0 0 0 1.23-1.16c-.43-3.98.81-7.56.33-11.29q-.4-3.12-.88-6.23c-.71-4.64-2.88-9.05-4.34-13.58-1.23-3.84-3.38-6.35-5.53-9.56a2.23 2.23 0 0 1 2.41-3.4l11.04 2.79q.67.17.49-.5l-.45-1.66q-.13-.5-.53-.83c-3.92-3.26-8.34-6.37-10.98-10.62-2.13-3.41-5.27-8.15-3.83-12.3a.71.7 45.3 0 1 1.33.01q1.36 3.96 4.15 7.1.43.49 1.07.38 6.11-.97 11.69-3.55.43-.2.62-.63 1.61-3.65 5.44-4.67a1.16 1.16 0 0 0 .05-2.22l-5.03-1.59a.65.64 11.6 0 1-.44-.66c.33-4.55 6-3.88 9.25-4.38 16.57-2.56 25.55-20.7 24.85-36.04-.32-7.04-4.92-12.82-9.07-18.48q-4.39-5.99-7.89-8.22-3.42-2.19-7.46-3.09-3.91-.87-7.82.41-6.29 2.08-11.47 7.09-9.46 9.13-14.96 14.88-2.07 2.17-4.61 3.44c-7.31 3.67-12.25 6.43-20.86 4.7q-2.32-.47-2.56-2.48-.07-.63.55-.51 10.63 2.04 19.33-4.17a.8.8 0 0 0-.12-1.38c-3.08-1.49-5.89-2.85-9.36-3.92q-8.64-2.67-16.68-6.8c-4.83-2.49-8.83-6.37-13.15-9.88q-3.74-3.03-6.23-7.49a1.03 1.03 0 0 0-1.91.7q1.5 7.68 5.07 14.58a1.69 1.68 69.2 0 1-1.08 2.42c-2.84.71-4.93-1.4-6.9-1.97q-9.01-2.59-18.42-1.19-4.16.63-8.34 1.23c-5.74.84-11.89.58-17.93 1.22q-4.07.44-13.64-2.01-.65-.16-.31.41c2.29 3.89 5.46 6.76 7.75 10.7q2.77 4.76 7.94 7.36a.92.92 0 0 1-.28 1.74q-7.5 1.06-13.77 5.28-.45.3 0 .6 1.53 1 3.32.23.94-.41 1.55 0 .52.35-.01.67-3.23 2-6.37-.12-.71-.47-1.05.31l-.49 1.16q-.15.36.23.45l2.18.48a.62.62 0 0 1 .47.77q-.74 2.83-3.45 3.42a.85.85 0 0 1-.84-.3q-.97-1.17-2.07-.34-3.76 2.81-7.99 4.74a.58.58 0 0 0-.15.95l5.14 4.89a2.12 2.12 0 0 1 .3 2.72q-1.67 2.47-4.53 3.28-.85.24-.28.91l1.13 1.34a.93.93 0 0 1 .14.97l-1.39 3.17q-.18.42-.63.52-2.86.66-3.59-.74 1.5-2.21.28-3.72-.34-.41-.23-.93.83-3.85 4.14-5.92a.66.65 50 0 0 .09-1.05q-2.71-2.36-5.49-4.79c-1.35-1.18-1.7-2.33-.47-3.73a.94.94 0 0 1 .65-.31q3.38-.11 6.48-1.39a.52.5 5.1 0 0 .25-.2l3.18-4.86q.28-.42.27-.91-.05-2.25 2.46-3.6 7.61-4.09 16.12-5.77a.33.32-42.4 0 0 .03-.63c-2.79-.78-4.47-2.11-5.94-4.83q-2.79-5.15-6.84-9.42-.8-.84-1-3.22-.04-.47-.37-.8-1.55-1.56-3.83-1.61a1.16 1.16 0 0 1-.93-1.81q1.64-2.42 3.75-1.42c1.66.78 3.05 1.5 4.88 1.86 14.69 2.95 25.09 1.24 41.97-1.06 2.55-.35 5.34-.08 7.99-.18q5.09-.19 9.76 1.73a.23.23 0 0 0 .28-.34c-2.99-4.35-3.04-9.17-3.69-14.19q-.52-3.96.73-8.07a1.67 1.67 0 0 1 1.93-1.15c1.91.39 2.88 1.6 3.66 3.48q2.58 6.15 8.98 12.1 9.6 8.91 16.39 12.37c5.66 2.88 15.95 4.94 23.02 9.1a2.83 2.83 0 0 0 3.4-.4q6.94-6.7 13.16-12.79c4.47-4.37 8.1-6.63 13.56-8.97 3.96-1.7 6.34-1.69 10.68-.36 5.89 1.81 10.32 2.91 14.75 8.36q5.45 6.7 9.74 14.22c3.5 6.12 3.63 12.03 2.53 19.2-2.09 13.61-12.17 28.52-26.77 31.04q-.64.11-.27.64.73 1.06 2.22 1.79Z"/><path fill="#ffe5cf" d="m239.8 96.81.97-.34c.18 2.58-.28 4.85.43 7.33q3.15 10.95 7 17.71 4.2 7.36 8.37 14.37a.77.77 0 0 1-.9 1.13l-3.88-1.27q-.53-.18-1.04.07c-5.22 2.62 1.3 10.85 2.61 14.31 2.51 6.6 4.84 12.95 4.65 20.06-.16 6.36-.19 16.86-6.33 20.5q-5.34 3.16-10.98 5.71c-2.33 1.05-3.41 2.01-4.38 4.22a1.1 1.1 0 0 0 1.48 1.43l1.45-.7a.49.49 0 0 1 .54.8q-6.24 5.55-12.3 11.06c-3.96 3.6-8.53 6-13.04 8.99a.54.54 0 0 0 .29.99q4.72.05 8.63-3.17.15-.13.28-.14.16-.01.28.07a.37.36-51.4 0 1 .06.56c-4.13 4.24-6.43 9.81-9.46 13.72q-17.76 22.87-45.85 31.47-4.78 1.46-6.18 1.54-9.9.58-15.62 1.9c-4.38 1.01-10.48-.3-14.34-.33-4.46-.03-8.19.4-12.59-.86-4.3-1.24-8.7-2.07-12.67-3.9q-2.93-1.36-5.79-2.85c-1.59-.82-3.3-.65-4.92-1.55q-4.22-2.36-9.26-3.53c-8.41-1.95-11.46-7.77-14.82-16.41a.83.81-37.3 0 1 .12-.82l3.29-4.14a1.44 1.44 0 0 0-1.78-2.18l-1.65.84a.99.98-5.9 0 1-1.4-1.13c1.73-6.26 6.51-4.18 10.99-4.44q4.07-.24 8.14-.09c7.52.28 14.44-.49 21.74-1.01q6.98-.5 13.55-1.53 6.85-1.07 13.68-2.21 2.28-.38 2.4-2.26a2 2 0 0 0-2.71-2q-4.54 1.72-9.58 2.16c-2.05.18-3.94 1.07-6.03 1.32q-29.21 3.41-58.49 1.31-.74.16-1.08-.03-.47-.27.03-.48c3.01-1.25 5.92-2.45 8.7-4.16 2.21-1.37 4.89-1.82 6.75-2.87q10.35-5.88 18.2-14.86c.87-.99 1.37-2.37 2.37-3.4q15.73-16.26 25.28-27.94 2.96-3.62 7.81-11.61.26-.43.76-.47 5.42-.49 7.1-4.95c.71-1.9-.71-3.45-2.73-3.43q-3.49.04-6.71 1.35-5.28 2.28-3.64 4.43-2.07 2.75-3.35 3.42-11.39 5.97-23.39 9.69-4.19-.06-8.12.86c-3.17.74-5.11-.12-8.15-.38-7.21-.6-14.73-2.84-20.84-3.19q-6.94-.4-11.19-1.41-.49-.12-.88-.43-1.64-1.33-4.65-.96l-2.49-.74q-.6-.17-.69-.79l-1.76-12.25a.91.91 0 0 1 .71-1.02q6.19-1.27 11.58-4.93c1.15-.78 1.34-1.58.7-2.77q-.24-.45-.12-.94 1.18-4.58 4.44-7.37.75.01.78-.64.02-.71-.55-1.44-.12-.34-.23-.68.97-1.24 2.17-.83.43.14.52-.29.08-.38-.15-.96.66-2.18 2.09-3.67 1.91.36 2.03-.88.05-.49-.4-2.08-1.99-6.28-6.7-11.47-3.05-5.42-8.57-2.98-.48.21-.88-.13l-1.31-1.11q-1.19-1.37-2.15-1.19-.98-.39-1.94-.03l-.66-.57q.03-.48.35-.82.23-.24.74-.35 2.17-.44 4.31-.93c5.18-1.2 11.14-1.4 16.47-1.83 6.37-.51 12.11-3 18.11-4.97.94-.31 2.27-.34 3.3-.86 1.95-.98 1.28-2.56-.03-3.71a1.36 1.36 0 0 0-1.74-.05c-1.72 1.33-3.93 2.06-5.75 3.02q-6.63 3.49-14.77 3.64c2.99-1.71 3.06-4 3.86-6.73q.73 1.4 3.59.74.45-.1.63-.52l1.39-3.17a.93.93 0 0 0-.14-.97l-1.13-1.34q-.57-.67.28-.91 2.86-.81 4.53-3.28a2.12 2.12 0 0 0-.3-2.72l-5.14-4.89a.58.58 0 0 1 .15-.95q4.23-1.93 7.99-4.74 1.1-.83 2.07.34a.85.85 0 0 0 .84.3q2.71-.59 3.45-3.42a.62.62 0 0 0-.47-.77l-2.18-.48q-.38-.09-.23-.45l.49-1.16q.34-.78 1.05-.31 3.14 2.12 6.37.12.53-.32.01-.67-.61-.41-1.55 0-1.79.77-3.32-.23-.45-.3 0-.6 6.27-4.22 13.77-5.28a.92.92 0 0 0 .28-1.74q-5.17-2.6-7.94-7.36c-2.29-3.94-5.46-6.81-7.75-10.7q-.34-.57.31-.41 9.57 2.45 13.64 2.01c6.04-.64 12.19-.38 17.93-1.22q4.18-.6 8.34-1.23 9.41-1.4 18.42 1.19c1.97.57 4.06 2.68 6.9 1.97a1.69 1.68 69.2 0 0 1.08-2.42q-3.57-6.9-5.07-14.58a1.03 1.03 0 0 1 1.91-.7q2.49 4.46 6.23 7.49c4.32 3.51 8.32 7.39 13.15 9.88q8.04 4.13 16.68 6.8c3.47 1.07 6.28 2.43 9.36 3.92a.8.8 0 0 1 .12 1.38q-8.7 6.21-19.33 4.17-.62-.12-.55.51.24 2.01 2.56 2.48c8.61 1.73 13.55-1.03 20.86-4.7q2.54-1.27 4.61-3.44 5.5-5.75 14.96-14.88 5.18-5.01 11.47-7.09 3.91-1.28 7.82-.41 4.04.9 7.46 3.09 3.5 2.23 7.89 8.22c4.15 5.66 8.75 11.44 9.07 18.48.7 15.34-8.28 33.48-24.85 36.04-3.25.5-8.92-.17-9.25 4.38a.65.64 11.6 0 0 .44.66l5.03 1.59a1.16 1.16 0 0 1-.05 2.22q-3.83 1.02-5.44 4.67-.19.43-.62.63-5.58 2.58-11.69 3.55-.64.11-1.07-.38-2.79-3.14-4.15-7.1a.71.7 45.3 0 0-1.33-.01c-1.44 4.15 1.7 8.89 3.83 12.3 2.64 4.25 7.06 7.36 10.98 10.62q.4.33.53.83l.45 1.66q.18.67-.49.5l-11.04-2.79a2.23 2.23 0 0 0-2.41 3.4c2.15 3.21 4.3 5.72 5.53 9.56 1.46 4.53 3.63 8.94 4.34 13.58q.48 3.11.88 6.23c.48 3.73-.76 7.31-.33 11.29a1.07 1.07 0 0 1-1.23 1.16c-2.49-.4-2.81 1.74-2.57 3.7.94 7.69-3.95 12.01-9.86 17.5q-13.14 12.22-20.92 17.85-1.64 1.19-2.6 1.7a.57.57 0 0 0 .12 1.05c3.58 1.05 7.69-2.3 10.28-4.46q12.77-10.66 24.25-22.7c1.5-1.57 1.94-3.27 2.51-5.27a.84.84 0 0 1 .65-.6l1.67-.32q.45-.08.54-.53c3.17-14.92 2.5-27.26-3.52-41.15-.95-2.19-1.36-4.11-3.24-5.98a.47.47 0 0 1 .27-.8q2.19-.29 4.02.86.33.22.73.23 3.4.09 6.39.99a2.18 2.17-5.3 0 0 2.56-3.08q-.69-1.31-1.66-2.03a2.11 2.1-83 0 1-.67-.86q-2.62-6.05-8.48-9.27-2.64-1.45-3.95-4.1a.4.39 79 0 1 .38-.57q4.66.31 8.8-1.48c2.25-.97 4.34-2.8 6.56-4.25q1.16-.76 3.01-2.65c1.9-1.94 6.23-2.86 5.61-6.26Zm-42.61-23.6-3.61.46q-1.03.37-1.5.85-1.17-.16-1.85.16-.64.3 0 .59 1.64.76 3.43.38a.61.61 0 0 1 .7.79l-1.38 4.11a.64.6 50.4 0 0-.02.31q.82 3.89 5.69 4.86.44.93-.87 1.79-.43.28-.39.8.08.98.94 1.31c1.7 2.24 3.37.41 4.11-1.23q1.66.01 2.66.82.42.34.41.89-.06 2.66 1.21 2.05l6.23.05 7.4-1.09a1.31 1.31 0 0 0 .86-2.08l-1.33-1.79a.4.4 0 0 1 .5-.6l1.3.63q.47.22.97.15 15.32-2 23.27-15.22 5.07-8.43 5.44-11.19 2.14-16.14-11.4-22.09c-4.34-1.91-8.64-1.73-12.54.73-2.97 1.87-7.57 6.44-9.29 9.81-4.35 8.53-7.43 15.99-16.29 18.76a1.37 1.37 0 0 0 .02 2.62q.72.22.98.61a.33.33 0 0 1-.21.51l-5.44 1.25Zm-43.61 15.06q.63-.33.56-1.19a.76.75-74.1 0 0-.29-.53l-3.13-2.36q-.46-.34-.67-.87c-3.29-8.33-21.11-12.99-29.56-14.28q-3.57-.55-8.28 1.6c-8 3.65 2.97 9.91 6.07 11.64q2.5 1.39 6.25 2.18 5.72 1.19 9.77 2.95 3.89 1.7 13.2 6.83c2.3 1.27 2.82 3.59 6.27 1.54q1.26-.76 1.02-2c-.32-1.61-.43-3.11-1.45-4.47q-.5-.66.24-1.04Zm-11.41 25.48q.04.65-.11 1.02-.13.32-.76.48c-3.02.81-4.43 3.24-6.17 4.67q-2.58 2.13-5.16 4.29-.12.1-.11.26.01.16.03.31.06.43.44.21 5.09-2.96 6.59-3.55 2.25-.88 3.79-1.82 2.86-1.74 3.59-2.03 5.19-2.08 10.71-2.95 2.63-.42 5.22-1.55 4.35-1.87 8.95-2.59a.83.83 0 0 0 .66-1.07q-.24-.73-1.35-.56-7.15 1.1-14.32 2.45a.49.49 0 0 1-.49-.77l1.27-1.78a.49.49 0 0 0-.61-.72l-9.54 4.61q1.7-2.94-.61-3.58-3.61-1-5.84-2.51a1.31 1.28-31.3 0 0-.91-.21c-4.96.65-11.57 1.98-15.45 5.32-2.02 1.73-5.2 4.64-4.33 7.57q.13.46.6.36c5.96-1.21 11.38-5.13 15.49-6.3q3.35-.96 8.42.44Z"/><path fill="#300208" d="M212.95 92.2q-3.65-1.35-6.23-.05-1.27.61-1.21-2.05.01-.55-.41-.89-1-.81-2.66-.82l-4.11 1.23q-.86-.33-.94-1.31-.04-.52.39-.8 1.31-.86.87-1.79c3.93-2.14 6.95.09 10.42 2.65a1.14 1.13 52.2 0 0 1.07.14q2.32-.88 2.29-3.5 0-.48.47-.59c6.85-1.48 13.42.33 19.46-3.78 4.64-3.15 12.07-10.22 13.63-16.13.77-2.89 2.21-5.32 1.98-8.23q-.74-9.49-9.1-14.01c-2.29-1.24-6.05-2.07-8.16-.8q-6.22 3.75-10.31 11.18-2.89 5.28-4.16 7.08-3.22 4.58-4.79 6.7-.88 1.19-1.98.74-.41-.17-.86-.2-1.04-.08-1.35.62a1.12.97 74.5 0 0 1.75 1.16l.14-.27q.24-.47.65-.14c1.11.86 1.11 1.93.03 2.88-4.62 4.06-10.77 4.61-16.59 3.8q-.79.47-1.16-.5.47-.48 1.5-.85 2.55.95 3.61-.46l5.44-1.25a.33.33 0 0 0 .21-.51q-.26-.39-.98-.61a1.37 1.37 0 0 1-.02-2.62c8.86-2.77 11.94-10.23 16.29-18.76 1.72-3.37 6.32-7.94 9.29-9.81 3.9-2.46 8.2-2.64 12.54-.73q13.54 5.95 11.4 22.09-.37 2.76-5.44 11.19-7.95 13.22-23.27 15.22-.5.07-.97-.15l-1.3-.63a.4.4 0 0 0-.5.6l1.33 1.79a1.31 1.31 0 0 1-.86 2.08l-7.4 1.09Z"/><path fill="#83434d" d="M198.65 85.72q-4.87-.97-5.69-4.86a.64.6 50.4 0 1 .02-.31l1.38-4.11a.61.61 0 0 0-.7-.79q-1.79.38-3.43-.38-.64-.29 0-.59.68-.32 1.85-.16.37.97 1.16.5c5.82.81 11.97.26 16.59-3.8 1.08-.95 1.08-2.02-.03-2.88q-.41-.33-.65.14l-.14.27a1.12.97 74.5 0 1-1.75-1.16q.31-.7 1.35-.62.45.03.86.2 1.1.45 1.98-.74 1.57-2.12 4.79-6.7 1.27-1.8 4.16-7.08 4.09-7.43 10.31-11.18c2.11-1.27 5.87-.44 8.16.8q8.36 4.52 9.1 14.01c.23 2.91-1.21 5.34-1.98 8.23-1.56 5.91-8.99 12.98-13.63 16.13-6.04 4.11-12.61 2.3-19.46 3.78q-.47.11-.47.59.03 2.62-2.29 3.5a1.14 1.13 52.2 0 1-1.07-.14c-3.47-2.56-6.49-4.79-10.42-2.65Z"/><path fill="#300208" d="M153.34 89.31c1.02 1.36 1.13 2.86 1.45 4.47q.24 1.24-1.02 2c-3.45 2.05-3.97-.27-6.27-1.54q-9.31-5.13-13.2-6.83-4.05-1.76-9.77-2.95-3.75-.79-6.25-2.18c-3.1-1.73-14.07-7.99-6.07-11.64q4.71-2.15 8.28-1.6c8.45 1.29 26.27 5.95 29.56 14.28q.21.53.67.87l3.13 2.36a.76.75-74.1 0 1 .29.53q.07.86-.56 1.19-.74.38-.24 1.04Zm-4.99.91q.99.44.81-.63c-.65-3.81-2.79-7.19-6.22-9.18-2.76-1.6-4.74-3.43-7.67-4.43q-4.83-1.64-9.85-2.59c-1.34-.26-2.58-1.12-4.09-1.34-2.54-.38-4.65 1.29-7.6.61a1.08 1.08 0 0 0-.89 1.92c5.32 3.96 10.97 6.28 17.63 7.87 6.29 1.5 11.91 5.08 17.88 7.77Z"/><path fill="#5c192c" d="M148.35 90.22c-5.97-2.69-11.59-6.27-17.88-7.77-6.66-1.59-12.31-3.91-17.63-7.87a1.08 1.08 0 0 1 .89-1.92c2.95.68 5.06-.99 7.6-.61 1.51.22 2.75 1.08 4.09 1.34q5.02.95 9.85 2.59c2.93 1 4.91 2.83 7.67 4.43 3.43 1.99 5.57 5.37 6.22 9.18q.18 1.07-.81.63Z"/><path fill="#896d56" d="M197.19 73.21q-1.06 1.41-3.61.46l3.61-.46ZM202.44 88.39c-.74 1.64-2.41 3.47-4.11 1.23l4.11-1.23ZM43.45 102.94q-.77.18-1.16-.12a.43.43 0 0 1 .07-.73q1.36-.67.32-1.49a1.97 1.91 70.7 0 0-.66-.33l-3.53-.97q12.95-2.59 25.95-3.22 8.14-.15 14.77-3.64c1.82-.96 4.03-1.69 5.75-3.02a1.36 1.36 0 0 1 1.74.05c1.31 1.15 1.98 2.73.03 3.71-1.03.52-2.36.55-3.3.86-6 1.97-11.74 4.46-18.11 4.97-5.33.43-11.29.63-16.47 1.83q-2.14.49-4.31.93-.51.11-.74.35-.32.34-.35.82ZM212.95 92.2l-6.23-.05q2.58-1.3 6.23.05ZM62.65 226.78l3.61-1.61a.59.59 0 0 0 .28-.81q-.35-.66-1.78-.84 29.28 2.1 58.49-1.31c2.09-.25 3.98-1.14 6.03-1.32q5.04-.44 9.58-2.16a2 2 0 0 1 2.71 2q-.12 1.88-2.4 2.26-6.83 1.14-13.68 2.21-6.57 1.03-13.55 1.53c-7.3.52-14.22 1.29-21.74 1.01q-4.07-.15-8.14.09c-4.48.26-9.26-1.82-10.99 4.44a.99.98-5.9 0 0 1.4 1.13l1.65-.84a1.44 1.44 0 0 1 1.78 2.18l-3.29 4.14a.83.81-37.3 0 0-.12.82c3.36 8.64 6.41 14.46 14.82 16.41q5.04 1.17 9.26 3.53c1.62.9 3.33.73 4.92 1.55q2.86 1.49 5.79 2.85c3.97 1.83 8.37 2.66 12.67 3.9 4.4 1.26 8.13.83 12.59.86 3.86.03 9.96 1.34 14.34.33q5.72-1.32 15.62-1.9 1.4-.08 6.18-1.54 28.09-8.6 45.85-31.47c3.03-3.91 5.33-9.48 9.46-13.72a.37.36-51.4 0 0-.06-.56q-.12-.08-.28-.07-.13.01-.28.14-3.91 3.22-8.63 3.17a.54.54 0 0 1-.29-.99c4.51-2.99 9.08-5.39 13.04-8.99q6.06-5.51 12.3-11.06a.49.49 0 0 0-.54-.8l-1.45.7a1.1 1.1 0 0 1-1.48-1.43c.97-2.21 2.05-3.17 4.38-4.22q5.64-2.55 10.98-5.71c6.14-3.64 6.17-14.14 6.33-20.5.19-7.11-2.14-13.46-4.65-20.06-1.31-3.46-7.83-11.69-2.61-14.31q.51-.25 1.04-.07l3.88 1.27a.77.77 0 0 0 .9-1.13q-4.17-7.01-8.37-14.37-3.85-6.76-7-17.71c-.71-2.48-.25-4.75-.43-7.33q.37-.32.82-.07.28.15.43.58 7.61 22.1 20.96 41.32.57.82 1.37 3.02a.83.82-33.7 0 1-.17.84c-1.31 1.38-2.77 1.65-4.49.55q-2.74-1.75-5.87-2.6-.76-.21-.39.49 5.73 10.55 8.38 22.08c1.37 5.96.22 12.5-.42 18.56-1.03 9.79-7.72 12.85-15.58 16.8a1.46 1.44 89.6 0 0-.63.65c-.85 1.79-1.33 3.64-2.73 5.06q-5.06 5.15-10.32 10.06-.39.37-.43.9-.3 3.48-1.72 4.81-5.39 5.04-8.81 11.49-2.16 4.06-3.89 6.13c-13.66 16.3-30.8 28.44-51.63 33.14-5.02 1.14-11.45.93-17.27 1.99q-4.59.84-7.84.77c-8.17-.18-17.51.04-25.33-2.49-3.45-1.11-6.89-1.64-10.1-3.26q-12.5-6.3-20.67-8.75-7.4-2.22-10.85-7.97c-1.91-3.18-3.79-7.01-4.31-10.85q-.07-.52.16-.99l1.01-2a.41.41 0 0 0-.51-.57l-2.3.87a1.3 1.3 0 0 1-1.58-1.87l3.59-6.2a1.15 1.14-73.1 0 0-.91-1.71l-6.09-.47Z"/><path fill="#300208" d="m38.49 99.3 3.53.97a1.97 1.91 70.7 0 1 .66.33q1.04.82-.32 1.49a.43.43 0 0 0-.07.73q.39.3 1.16.12l.66.57.06.39q.09.49-.28.82-2.55 2.35-5.47.62-.45-.27-.97-.29-4.6-.19-9.2.32c-7.79.86-11.61 11.44-11.12 17.73q.41 5.44 4.43 11.6 3.5 5.37 8.32 9.64a.98.98 0 0 1 .32.77q-.06 1.31-1.17 1.19c-1.89-.75-3.17-1-4.42-2.77q-4.2-5.96-9.39-11.62-2.95-4.91-2.95-9.41.01-11.12 8.65-18.18c3.17-2.59 7.17-2.89 11.12-3.02 2.59-.09 4.27-.91 6.45-2Z"/><path fill="#5c192c" d="M46.05 103.54q.17 1.53 2.15 1.19l1.31 1.11q.4.34.88.13 5.52-2.44 8.57 2.98l-3.01.68q-.69.15-.29.73l7 10.32q.31.45.19.98l-.6 2.74a.87.87 0 0 1-1.49.41q-6.46-7.05-16.2-5.87c-1.76.22-3.17 1.15-4.8 1.91q-.48.22-.89-.11-6-4.93-13.36-2.95-2.87.76-4.35 2.99-1.56 2.36-1.89 5.26a.36.36 0 0 0 .67.23c1.47-2.33 2.89-5.44 5.67-6.35q7.05-2.3 11.46 3.88a1.65 1.65 0 0 1 .03 1.86c-2.51 3.83-.07 6.21 3.23 8.32q3.67 2.35 7.43 4.65 1.71 1.05.6 2.71-1.45 2.18-4.06 2.58-.53.08-.91-.29c-2.42-2.33-5.53-3.79-7.4-6.25-1.31-1.73-2.87-6.15-4.45-7.13a.96.96 0 0 0-1.46.81q-.08 8.16 6.97 11.75a1.8 1.79 29.5 0 1 .71 2.55q-1.09 1.74-3.59.21-.92-.56-1.9-.38-.71.13-.11.54 2.35 1.62 5.11 1.58.5 0 .52.5.06 1.47-.33 2.19-4.74-.33-7.03-1.9-.48-1.1-1.4-1.8 1.11.12 1.17-1.19a.98.98 0 0 0-.32-.77q-4.82-4.27-8.32-9.64-4.02-6.16-4.43-11.6c-.49-6.29 3.33-16.87 11.12-17.73q4.6-.51 9.2-.32.52.02.97.29 2.92 1.73 5.47-.62.37-.33.28-.82l-.06-.39q.96-.36 1.94.03Z"/><path fill="#896d56" d="M46.05 103.54q.96-.18 2.15 1.19-1.98.34-2.15-1.19Z"/><path fill="#300208" d="m144.8 112.66-1.33 2.11q-.31.49-.63 0l-.67-1.02q-5.07-1.4-8.42-.44c-4.11 1.17-9.53 5.09-15.49 6.3q-.47.1-.6-.36c-.87-2.93 2.31-5.84 4.33-7.57 3.88-3.34 10.49-4.67 15.45-5.32a1.31 1.28-31.3 0 1 .91.21q2.23 1.51 5.84 2.51 2.31.64.61 3.58Z"/><path fill="#896d56" d="m142.17 113.75.67 1.02q.32.49.63 0l1.33-2.11 9.54-4.61a.49.49 0 0 1 .61.72l-1.27 1.78a.49.49 0 0 0 .49.77q7.17-1.35 14.32-2.45 1.11-.17 1.35.56a.83.83 0 0 1-.66 1.07q-4.6.72-8.95 2.59-2.59 1.13-5.22 1.55-5.52.87-10.71 2.95-.73.29-3.59 2.03-1.54.94-3.79 1.82-1.5.59-6.59 3.55-.38.22-.44-.21-.02-.15-.03-.31-.01-.16.11-.26 2.58-2.16 5.16-4.29c1.74-1.43 3.15-3.86 6.17-4.67q.63-.16.76-.48.15-.37.11-1.02Z"/><path fill="#300208" d="M58.96 108.95q4.71 5.19 6.7 11.47-1.14 1.26-1.63 2.96-1.43 1.49-2.09 3.67-.4 1.15-1.68.93-1.15-.19-1.51-.98a1.06 1.05 4.2 0 0-.4-.46q-3.18-1.96-6.59-3.42c-2.92-1.25-5.37-.46-8.32.2a1.19 1.19 0 0 0-.44 2.12q.84.61 1.08 1.51a.55.54-12.4 0 1-.44.68l-1.97.32a.48.48 0 0 0-.29.78q3.73 4.44 8.93 7.03a.68.67 28.6 0 0 .89-.26q3.19-5.46 8.2-6.37.11.34.23.68l-.23 2.08q-3.26 2.79-4.44 7.37-.12.49.12.94c.64 1.19.45 1.99-.7 2.77q-5.39 3.66-11.58 4.93a.91.91 0 0 0-.71 1.02l1.76 12.25q.09.62.69.79l2.49.74q.09 1.1 1.66.35a.48.47 75.5 0 1 .67.4c.06.81-.45 1.72-1.26 2.08q-6.86 3.09-9.26-2.56-.71-3.55-1.56-6.84c-.61-2.32-.25-3.81.18-6.13q.39-.72.33-2.19-.02-.5-.52-.5-2.76.04-5.11-1.58-.6-.41.11-.54.98-.18 1.9.38 2.5 1.53 3.59-.21a1.8 1.79 29.5 0 0-.71-2.55q-7.05-3.59-6.97-11.75a.96.96 0 0 1 1.46-.81c1.58.98 3.14 5.4 4.45 7.13 1.87 2.46 4.98 3.92 7.4 6.25q.38.37.91.29 2.61-.4 4.06-2.58 1.11-1.66-.6-2.71-3.76-2.3-7.43-4.65c-3.3-2.11-5.74-4.49-3.23-8.32a1.65 1.65 0 0 0-.03-1.86q-4.41-6.18-11.46-3.88c-2.78.91-4.2 4.02-5.67 6.35a.36.36 0 0 1-.67-.23q.33-2.9 1.89-5.26 1.48-2.23 4.35-2.99 7.36-1.98 13.36 2.95.41.33.89.11c1.63-.76 3.04-1.69 4.8-1.91q9.74-1.18 16.2 5.87a.87.87 0 0 0 1.49-.41l.6-2.74q.12-.53-.19-.98l-7-10.32q-.4-.58.29-.73l3.01-.68Z"/><path fill="#896d56" d="M65.66 120.42q.45 1.59.4 2.08-.12 1.24-2.03.88.49-1.7 1.63-2.96Z"/><path fill="#5c192c" d="M61.94 127.05q.23.58.15.96-.09.43-.52.29-1.2-.41-2.17.83-5.01.91-8.2 6.37a.68.67 28.6 0 1-.89.26q-5.2-2.59-8.93-7.03a.48.48 0 0 1 .29-.78l1.97-.32a.55.54-12.4 0 0 .44-.68q-.24-.9-1.08-1.51a1.19 1.19 0 0 1 .44-2.12c2.95-.66 5.4-1.45 8.32-.2q3.41 1.46 6.59 3.42a1.06 1.05 4.2 0 1 .4.46q.36.79 1.51.98 1.28.22 1.68-.93Z"/><path fill="#896d56" d="M59.63 129.81q.57.73.55 1.44-.03.65-.78.64l.23-2.08ZM29.03 146.3q.92.7 1.4 1.8c-3.85.58-5.38-2.8-7.68-5.07a.58.58 0 0 0-.99.48c.81 7 2.98 20.73 9.98 24.46q.45.23.91.03c2.88-1.25 3.83-4.08 6.19-5.03q2.4 5.65 9.26 2.56c.81-.36 1.32-1.27 1.26-2.08a.48.47 75.5 0 0-.67-.4q-1.57.75-1.66-.35 3.01-.37 4.65.96.39.31.88.43 4.25 1.01 11.19 1.41c6.11.35 13.63 2.59 20.84 3.19 3.04.26 4.98 1.12 8.15.38q3.93-.92 8.12-.86l-7.07 2.53q-2.84.46-5.09 2.97l-4.46 1.96q.21-1.51.93-2.66.23-.38-.2-.48l-9.52-2.17q-.8-.18-.33.49l.87 1.26a.56.56 0 0 1-.39.87l-1.38.16q-.82.1-.39.81 2.49 4.07 7.81 4.71L75 179.73q-3.12-2.03-4.74-5.75-.17-.4-.61-.4l-15.1-.08a.66.66 0 0 0-.66.67q.04 1.35-.29 1.9-1.2 2.6-1.44 1.56-.19-1.41-4.62-3.38a1.24 1.24 0 0 0-1.74 1.22q.25 3.49-2.45 4.97c-5.37 2.96-9.47-4.36-11.91-8.49q-.26-.43-.72-.61c-5.73-2.32-9.49-10.4-10.85-15.7q-1.03-4-2.12-13.41-.05-.42.11-.81l1.04-2.52a1 .98 41.7 0 0-.06-.88l-3.62-6.11q5.19 5.66 9.39 11.62c1.25 1.77 2.53 2.02 4.42 2.77Zm36.43 23.59 4.28.99a.68.68 0 0 0 .43-1.28c-2.64-1.15-4.4-.33-6.43-.5q-7.64-.62-15.23-1.77-1.09-.16-3.27.56-.57.19-.16.63l2.43 2.63a.49.48 42.1 0 0 .73-.03q1.22-1.55 3.11-.88.43.16.89.09 2.05-.3 4.75-.03 3.51.36 7.53-.43.47-.09.94.02Zm-31.72 1.04c1.74 2.11 4.32 6.82 7.07 6.68q.52-.03.82-.46 2.17-3.18 1.16-7.05-.33-1.24-1.6-1.02l-7.22 1.25a.37.37 0 0 0-.23.6Z"/><path fill="#ffe5cf" d="M30.43 148.1q2.29 1.57 7.03 1.9c-.43 2.32-.79 3.81-.18 6.13q.85 3.29 1.56 6.84c-2.36.95-3.31 3.78-6.19 5.03q-.46.2-.91-.03c-7-3.73-9.17-17.46-9.98-24.46a.58.58 0 0 1 .99-.48c2.3 2.27 3.83 5.65 7.68 5.07Z"/><path fill="#300208" d="M64.76 223.52q1.43.18 1.78.84a.59.59 0 0 1-.28.81l-3.61 1.61q-5.77-.15-11.74-1.59c-2.25-.54-5.3-.11-7.65-1.68-6.15-4.11-9.94-9.26-6.98-16.87a1.04 1.03.5 0 1 .62-.6q1.8-.62 2.96-2.09.32-.41.84-.41c2.64-.01 5.33 1.64 7.92-.08l2.91 4.06a1.02 1.02 0 0 1 .17.84l-1.23 5.28a.85.84 8.4 0 0 .77 1.03l1.25.09a.76.75-78.6 0 0 .75-.5q1.13-3.09 4.37-2.11.69.21.16.7l-1.79 1.69a.39.39 0 0 0 .33.67l3.96-.59a.68.68 0 0 0 .41-1.12l-.7-.78a.48.48 0 0 1 .19-.77l1.4-.52q.58-.22.01-.45l-4.51-1.82q-.64-.26-.28-.85 3.81-6.42 9.2-11.58.1-.1.25-.11h.28a.47.47 0 0 0 .44-.35q.56-2.07 2.35-2.97c1.57-.78 2.45-2.27 4.04-3.23 6.28-3.81 11.86-6.92 18.21-11.75q5.36-4.08 11.69-7.11a.63.63 0 0 0-.05-1.16q-.23-.09-.91.3c-2.17 1.23-3.99.49-6.16 1.01q-6.96 1.67-2.34-.62l7.07-2.53q12-3.72 23.39-9.69 1.28-.67 3.35-3.42 2.73-.89 3.64-4.43 3.22-1.31 6.71-1.35c2.02-.02 3.44 1.53 2.73 3.43q-1.68 4.46-7.1 4.95-.5.04-.76.47-4.85 7.99-7.81 11.61-9.55 11.68-25.28 27.94c-1 1.03-1.5 2.41-2.37 3.4q-7.85 8.98-18.2 14.86c-1.86 1.05-4.54 1.5-6.75 2.87-2.78 1.71-5.69 2.91-8.7 4.16q-.5.21-.03.48.34.19 1.08.03Zm55.66-58.82-6.82 3.08a.77.77 0 0 0-.31 1.15q1.33 1.91.26 4.01-.17.33.15.52l.46.27a.42.42 0 0 0 .59-.18q2.2-4.66 6.34-7.71a.66.66 0 0 0-.67-1.14ZM85.8 201.48q.34-.14.58-.35 4.74-4.06 9.34-8.27c4.12-3.78 9.03-9.33 13.97-13.65q1.13-.98 1.02-3.4-.02-.47-.47-.59c-4.03-1.1-9.58.85-13.34 2.47q-3.15 1.35-7.92 4.67-7.48 5.2-15.07 10.29-.52.35-1.14.25-.65-.11-.63.67.01.73-.7.55l-.36-.09a.29.29 0 0 0-.34.2l-.61 1.92a.56.56 0 0 1-.81.32l-.52-.29a.41.4 3.1 0 0-.57.51q.61 1.44-.86 2.54-.45.34-.41-.22l.04-.5q.06-.85-.67-.41-2.13 1.31-1.42 3.07.37.9 2 1.74c2.65 1.36 4.95 3.94 7.19 5.8a.7.69 49.5 0 0 .8.07q5.37-3.08 10.18-6.89.33-.26.72-.41Zm-16.56 7.47c-.67-1.3-2.68-.44-2.95-2.69a1.08 1.08 0 0 0-1.93-.53q-3.01 3.86.17 7.52.41.47.98.25l5.93-2.29q.51-.2-.01-.38-1.5-.53-2.19-1.88Zm-23.01-1.08 1.44 3.4q.28.64.51-.02l1.19-3.35a.51.5 6.9 0 0-.53-.67l-2.38.25q-.37.04-.23.39Zm1.585 13.014a2.97.57 29.1 0 0-2.318-1.942 2.97.57 29.1 0 0-2.872-.946 2.97.57 29.1 0 0 2.318 1.942 2.97.57 29.1 0 0 2.872.946Z"/><path fill="#896d56" d="M131.24 150.67q-.91 3.54-3.64 4.43-1.64-2.15 3.64-4.43Z"/><path fill="#5c192c" d="M120.42 164.7a.66.66 0 0 1 .67 1.14q-4.14 3.05-6.34 7.71a.42.42 0 0 1-.59.18l-.46-.27q-.32-.19-.15-.52 1.07-2.1-.26-4.01a.77.77 0 0 1 .31-1.15l6.82-3.08Z"/><path fill="#fff" d="M64.52 169.87q-4.02.79-7.53.43-2.7-.27-4.75.03-.46.07-.89-.09-1.89-.67-3.11.88a.49.48 42.1 0 1-.73.03l-2.43-2.63q-.41-.44.16-.63 2.18-.72 3.27-.56 7.59 1.15 15.23 1.77c2.03.17 3.79-.65 6.43.5a.68.68 0 0 1-.43 1.28l-4.28-.99q-.47-.11-.94-.02ZM33.74 170.93a.37.37 0 0 1 .23-.6l7.22-1.25q1.27-.22 1.6 1.02 1.01 3.87-1.16 7.05-.3.43-.82.46c-2.75.14-5.33-4.57-7.07-6.68Z"/><path fill="#83434d" d="m48.62 203.46 1.34-1.54 1.98 3.6a1.33 1.32-44.4 0 0 2.31.02l1.59-2.75q.25-.43-.2-.66-1.61-.81-2.24-2.61-.22-.64.46-.63 1.06.03 1.04-1.12a.43.43 0 0 1 .65-.38q1.57.92 1.9 2.59.13.69.62.19l.83-.85q.7-.71-.3-.7h-.48a.58.57-77.5 0 1-.52-.82l.65-1.4q.35-.78.85-.08.74 1.03 1.52.4 1.62-1.32 3.19-3.62 1.56-2.3 3.12-3.57 4.83-3.93 9.94-7.61a1.05 1.04-53.8 0 1 .93-.15c3.74 1.2 6.68.17 8.71-3.33q1.32-2.29 2.19-4.73 2.25-2.51 5.09-2.97-4.62 2.29 2.34.62c2.17-.52 3.99.22 6.16-1.01q.68-.39.91-.3a.63.63 0 0 1 .05 1.16q-6.33 3.03-11.69 7.11c-6.35 4.83-11.93 7.94-18.21 11.75-1.59.96-2.47 2.45-4.04 3.23q-1.79.9-2.35 2.97a.47.47 0 0 1-.44.35h-.28q-.15.01-.25.11-5.39 5.16-9.2 11.58-.36.59.28.85l4.51 1.82q.57.23-.01.45l-1.4.52a.48.48 0 0 0-.19.77l.7.78a.68.68 0 0 1-.41 1.12l-3.96.59a.39.39 0 0 1-.33-.67l1.79-1.69q.53-.49-.16-.7-3.24-.98-4.37 2.11a.76.75-78.6 0 1-.75.5l-1.25-.09a.85.84 8.4 0 1-.77-1.03l1.23-5.28a1.02 1.02 0 0 0-.17-.84l-2.91-4.06Z"/><path fill="#fff" d="m84.24 175.67-2.6 2.99q-5.32-.64-7.81-4.71-.43-.71.39-.81l1.38-.16a.56.56 0 0 0 .39-.87l-.87-1.26q-.47-.67.33-.49l9.52 2.17q.43.1.2.48-.72 1.15-.93 2.66Z"/><path fill="#5c192c" d="M75 179.73q-10.35 5.16-16.57 14.63-3.54 5.37-2.03-.83.82-3.36.45-9.27-.39-6.05-3.25-8.19.33-.55.29-1.9a.66.66 0 0 1 .66-.67l15.1.08q.44 0 .61.4 1.62 3.72 4.74 5.75Z"/><path fill="#300208" d="M88.7 173.71q-.87 2.44-2.19 4.73c-2.03 3.5-4.97 4.53-8.71 3.33a1.05 1.04-53.8 0 0-.93.15q-5.11 3.68-9.94 7.61-1.56 1.27-3.12 3.57-1.57 2.3-3.19 3.62-.78.63-1.52-.4-.5-.7-.85.08l-.65 1.4a.58.57-77.5 0 0 .52.82h.48q1-.01.3.7l-.83.85q-.49.5-.62-.19-.33-1.67-1.9-2.59a.43.43 0 0 0-.65.38q.02 1.15-1.04 1.12-.68-.01-.46.63.63 1.8 2.24 2.61.45.23.2.66l-1.59 2.75a1.33 1.32-44.4 0 1-2.31-.02l-1.98-3.6q2.76-6.53 3.37-13.74.14-1.7-.56-4.69-.63-2.64-.61-5.86.24 1.04 1.44-1.56 2.86 2.14 3.25 8.19.37 5.91-.45 9.27-1.51 6.2 2.03.83 6.22-9.47 16.57-14.63l6.64-1.07 2.6-2.99 4.46-1.96Zm-26.16 18.76q-.97-1.43-1.71.13l-.9 1.9a.41.41 0 0 0 .72.38q.65-1.12 1.91-.73a.52.52 0 0 0 .59-.79l-.61-.89Z"/><path fill="#83434d" d="M85.08 201.89q-4.81 3.81-10.18 6.89a.7.69 49.5 0 1-.8-.07c-2.24-1.86-4.54-4.44-7.19-5.8q-1.63-.84-2-1.74-.71-1.76 1.42-3.07.73-.44.67.41l-.04.5q-.04.56.41.22 1.47-1.1.86-2.54a.41.4 3.1 0 1 .57-.51l.52.29a.56.56 0 0 0 .81-.32l.61-1.92a.29.29 0 0 1 .34-.2l.36.09q.71.18.7-.55-.02-.78.63-.67.62.1 1.14-.25 7.59-5.09 15.07-10.29 4.77-3.32 7.92-4.67c3.76-1.62 9.31-3.57 13.34-2.47q.45.12.47.59.11 2.42-1.02 3.4c-4.94 4.32-9.85 9.87-13.97 13.65q-4.6 4.21-9.34 8.27-.24.21-.58.35-.39.15-.72.41ZM62.54 192.47l.61.89a.52.52 0 0 1-.59.79q-1.26-.39-1.91.73a.41.41 0 0 1-.72-.38l.9-1.9q.74-1.56 1.71-.13Z"/><path fill="#fff" d="M66.29 206.26c.27 2.25 2.28 1.39 2.95 2.69q.69 1.35 2.19 1.88.52.18.01.38l-5.93 2.29q-.57.22-.98-.25-3.18-3.66-.17-7.52a1.08 1.08 0 0 1 1.93.53ZM47.67 211.27l-1.44-3.4q-.14-.35.23-.39l2.38-.25a.51.5 6.9 0 1 .53.67l-1.19 3.35q-.23.66-.51.02Z"/><ellipse fill="#896d56" transform="rotate(29.1 -400.124 196.833)" rx="2.97" ry=".57"/></svg>